# xmcd CD database file
#
# Track frame offsets:
#	183
#	19978
#	40968
#	66635
#	82188
#	98998
#	117298
#	137703
#	165913
#	180020
#
# Disc length: 2743 seconds
#
# Revision: 0
# Processed by: cddbd v1.5.2PL0 Copyright (c) Steve Scherf et al.
# Submitted via: CDex 1.70beta2
#
DISCID=820ab50a
DTITLE=Melissa Etheridge - never enough
DYEAR=2001
DGENRE=Country
TTITLE0=AIN'T IT HEAVY
TTITLE1=2001
TTITLE2=GANCE WITHOUT SLEEPING
TTITLE3=PLACE YOUR HAND
TTITLE4=MUST BE CRAZY FOR ME
TTITLE5=MEET ME IN THE BACK
TTITLE6=THE BOY FEELS STRANGE
TTITLE7=KEEP IT PRECIOUS
TTITLE8=THE LETTING GO
TTITLE9=IT's FOR YOU
EXTD=YEAR: 2001
EXTT0=
EXTT1=
EXTT2=
EXTT3=
EXTT4=
EXTT5=
EXTT6=
EXTT7=
EXTT8=
EXTT9=
PLAYORDER=
